<?xml version="1.0" standalone="no"?><!DOCTYPE svg PUBLIC "-//W3C//DTD SVG 1.1//EN" "http://www.w3.org/Graphics/SVG/1.1/DTD/svg11.dtd"><svg t="1726367475832" class="icon" viewBox="0 0 1024 1024" version="1.1" xmlns="http://www.w3.org/2000/svg" p-id="4326" width="48" height="48" xmlns:xlink="http://www.w3.org/1999/xlink"><path d="M951.021216 73.138776l-0.217131 877.722448h-877.665309l0.228559-877.665309h877.665309m36.569388-73.138775h-950.804085a36.672239 36.672239 0 0 0-36.569388 36.569388l-0.228558 950.804084a36.672239 36.672239 0 0 0 36.569387 36.569388h950.804085a36.672239 36.672239 0 0 0 36.569388-36.569388l0.228559-950.804084a36.672239 36.672239 0 0 0-36.569388-36.569388z" p-id="4327" fill="#ffffff"></path><path d="M512.645679 219.244908m36.717951 0l292.120841 0q36.717951 0 36.717951 36.717951l0 0q0 36.717951-36.717951 36.717951l-292.120841 0q-36.717951 0-36.717951-36.717951l0 0q0-36.717951 36.717951-36.717951Z" p-id="4328" fill="#ffffff"></path><path d="M512.885665 584.81308m36.717951 0l291.183751 0q36.717951 0 36.717951 36.717951l0 0q0 36.717951-36.717951 36.717951l-291.183751 0q-36.717951 0-36.717951-36.717951l0 0q0-36.717951 36.717951-36.717951Z" p-id="4329" fill="#ffffff"></path><path d="M255.220044 439.015501a36.569388 36.569388 0 0 1-25.88427-10.765113l-73.138776-73.435902a36.569388 36.569388 0 1 1 51.791396-51.608549l47.277362 47.460209L375.647609 230.112873a36.573959 36.573959 0 0 1 51.757112 51.688544l-146.277551 146.494683a36.569388 36.569388 0 0 1-25.907126 10.719401zM256.362837 803.38374a36.569388 36.569388 0 0 1-25.884269-10.765114l-73.138776-73.435902a36.569388 36.569388 0 0 1 51.791395-51.619976l47.277362 47.460208L376.790403 594.481112a36.569388 36.569388 0 0 1 51.757112 51.677116l-146.277552 146.494682a36.569388 36.569388 0 0 1-25.907126 10.73083z" p-id="4330" fill="#ffffff"></path><path d="M512.645679 364.791072m36.717951 0l218.616372 0q36.717951 0 36.717951 36.717951l0 0q0 36.717951-36.717951 36.717951l-218.616372 0q-36.717951 0-36.717951-36.717951l0 0q0-36.717951 36.717951-36.717951Z" p-id="4331" fill="#ffffff"></path><path d="M512.885665 730.107829m36.717951 0l144.997623 0q36.717951 0 36.717951 36.717951l0 0q0 36.717951-36.717951 36.717951l-144.997623 0q-36.717951 0-36.717951-36.717951l0 0q0-36.717951 36.717951-36.717951Z" p-id="4332" fill="#ffffff"></path></svg>