<?xml version="1.0" standalone="no"?><!DOCTYPE svg PUBLIC "-//W3C//DTD SVG 1.1//EN" "http://www.w3.org/Graphics/SVG/1.1/DTD/svg11.dtd"><svg t="1728980478949" class="icon" viewBox="0 0 1024 1024" version="1.1" xmlns="http://www.w3.org/2000/svg" p-id="33472" xmlns:xlink="http://www.w3.org/1999/xlink" width="14" height="14"><path d="M128 96v64h768v-64H128zM192 448h64c38.4 0 64-25.6 64-64V320c0-38.4-25.6-64-64-64H192c-38.4 0-64 25.6-64 64v64c0 38.4 25.6 64 64 64z m0-128h64v64H192V320z m352 128c38.4 0 64-25.6 64-64V320c0-38.4-25.6-64-64-64h-64c-38.4 0-64 25.6-64 64v64c0 38.4 25.6 64 64 64h64z m-64-128h64v64h-64V320zM832 256h-64c-38.4 0-64 25.6-64 64v64c0 38.4 25.6 64 64 64h64c38.4 0 64-25.6 64-64V320c0-38.4-25.6-64-64-64z m0 128h-64V320h64v64zM128 640h768V576H128v64z m128 96H192c-38.4 0-64 25.6-64 64v64c0 38.4 25.6 64 64 64h64c38.4 0 64-25.6 64-64v-64c0-38.4-25.6-64-64-64z m0 128H192v-64h64v64z m288-128h-64c-38.4 0-64 25.6-64 64v64c0 38.4 25.6 64 64 64h64c38.4 0 64-25.6 64-64v-64c0-38.4-25.6-64-64-64z m0 128h-64v-64h64v64z m288-128h-64c-38.4 0-64 25.6-64 64v64c0 38.4 25.6 64 64 64h64c38.4 0 64-25.6 64-64v-64c0-38.4-25.6-64-64-64z m0 128h-64v-64h64v64z" fill="#ffffff" p-id="33473"></path></svg>