<?xml version="1.0" standalone="no"?><!DOCTYPE svg PUBLIC "-//W3C//DTD SVG 1.1//EN" "http://www.w3.org/Graphics/SVG/1.1/DTD/svg11.dtd"><svg t="1728978806847" class="icon" viewBox="0 0 1024 1024" version="1.1" xmlns="http://www.w3.org/2000/svg" p-id="12704" width="13" height="13" xmlns:xlink="http://www.w3.org/1999/xlink"><path d="M414.72 88.8832a127.488 127.488 0 0 0-65.024 237.2096 66.2016 66.2016 0 0 1-2.9696-19.456V219.2896a69.1712 69.1712 0 0 1 68.7104-68.9152 66.56 66.56 0 0 1 66.56 66.56v89.7024a67.9936 67.9936 0 0 1-2.9696 19.8144A127.5392 127.5392 0 0 0 414.72 88.8832z" fill="#ffffff" p-id="12705"></path><path d="M486.7072 315.2384a71.3216 71.3216 0 0 0 0.512-8.6016V216.9344a71.68 71.68 0 0 0-71.68-71.68 74.24 74.24 0 0 0-74.24 74.0352v87.3472a69.12 69.12 0 0 0 0.4608 8.1408 122.3168 122.3168 0 1 1 144.896 0.4096z" fill="#ffffff" p-id="12706"></path><path d="M626.0224 1003.52c-119.1424 0-172.1856-23.7568-219.136-62.0544h-0.6144a87.5008 87.5008 0 0 1-16.896-13.056l-266.9056-265.6768c-43.6736-43.776-22.0672-104.704 7.168-133.9392A92.7744 92.7744 0 0 1 194.56 504.4224a88.3712 88.3712 0 0 1 63.1296 24.3712l66.9184 66.56V214.528A90.1632 90.1632 0 0 1 414.72 124.8768c48.9472 0 87.04 39.3728 87.04 89.7024v104.8064l7.6288-4.1472a88.7808 88.7808 0 0 1 42.6496-10.7008c38.0928 0 69.7344 23.296 82.5344 60.8256l2.0992 6.144 5.5296-3.4304a92.928 92.928 0 0 1 48.2304-13.6704c38.0928 0 69.7344 23.296 82.5344 60.8256l2.0992 6.144 5.5296-3.4304a84.0192 84.0192 0 0 1 46.1312-13.4656h2.7136a84.1728 84.1728 0 0 1 60.16 24.576 90.6752 90.6752 0 0 1 25.6 65.0752v189.9008c0 174.7968-21.76 319.488-289.1776 319.488zM199.68 549.3248a56.32 56.32 0 0 0-39.8336 15.6672 58.0096 58.0096 0 0 0-17.5104 36.352 50.6368 50.6368 0 0 0 15.9232 40.1408l252.8256 250.88c50.0736 49.8176 114.4832 71.0656 215.4496 71.0656 249.1904 0 249.1904-129.6896 249.1904-279.808V499.9168c0-48.7424-43.3664-50.176-48.3328-50.176h-0.8704a48.9472 48.9472 0 0 0-48.64 50.1248V593.92h-1.2288l0.8704 6.2464a18.5856 18.5856 0 0 1 0.3584 3.9424 19.3536 19.3536 0 0 1-19.4048 19.7632 19.9168 19.9168 0 0 1-20.0192-19.7632 18.5856 18.5856 0 0 1 0.3584-3.9424l1.3312-6.2464h-1.6896V453.9904c0-37.1712-32.768-49.0496-50.0736-50.1248-27.6992 0-48.3328 21.5552-48.3328 50.1248v109.7216h-1.2288l0.8704 6.2464a18.6368 18.6368 0 0 1 0.3584 3.9424 20.0192 20.0192 0 0 1-39.9872 0 18.8416 18.8416 0 0 1 0.3584-3.9424l1.3312-6.2464h-1.6896V404.0192c0-49.5616-47.36-50.176-49.3568-50.176a48.7424 48.7424 0 0 0-48.3328 50.176v119.6544h-1.2288l0.6144 6.2464a18.5856 18.5856 0 0 1 0.3584 3.9424 20.0192 20.0192 0 0 1-39.9872 0 18.5856 18.5856 0 0 1 0.3584-3.9424l1.3312-6.2464h-1.6896V224.2048c0-28.5696-20.48-50.176-47.3088-50.176a50.3296 50.3296 0 0 0-50.3808 50.176v466.6368l-45.4656-45.1584c-38.1952-38.0416-82.5856-81.92-82.5856-81.92a52.5824 52.5824 0 0 0-36.7104-14.4384z m77.2096-205.8752a188.8256 188.8256 0 1 1 325.4784-130.2016 185.3952 185.3952 0 0 1-5.12 42.3424 73.4208 73.4208 0 0 0-37.1712-15.36 147.3024 147.3024 0 0 0 2.5088-26.9312 149.1968 149.1968 0 1 0-298.3936 0 147.8656 147.8656 0 0 0 12.6976 59.5968z" fill="#ffffff" p-id="12707"></path></svg>