<?xml version="1.0" standalone="no"?><!DOCTYPE svg PUBLIC "-//W3C//DTD SVG 1.1//EN" "http://www.w3.org/Graphics/SVG/1.1/DTD/svg11.dtd"><svg t="1726328671112" class="icon" viewBox="0 0 1024 1024" version="1.1" xmlns="http://www.w3.org/2000/svg" p-id="5358" xmlns:xlink="http://www.w3.org/1999/xlink" width="16" height="16"><path d="M139.636364 442.181818V148.945455c0-4.654545 4.654545-9.309091 9.309091-9.309091h465.454545c4.654545 0 9.309091 4.654545 9.309091 9.309091v60.50909h46.545454V148.945455c0-32.581818-27.927273-55.854545-55.854545-55.854546h-465.454545c-32.581818 0-55.854545 27.927273-55.854546 55.854546v288.581818c0 32.581818 27.927273 55.854545 55.854546 55.854545h46.545454v-46.545454h-46.545454c-4.654545 4.654545-9.309091 0-9.309091-4.654546z" fill="#2c2c2c" p-id="5359"></path><path d="M302.545455 684.218182V335.127273c0-18.618182 18.618182-37.236364 37.236363-37.236364h493.381818c23.272727 0 37.236364 13.963636 37.236364 37.236364v176.872727h46.545455V335.127273c0-46.545455-37.236364-83.781818-83.781819-83.781818h-493.381818c-46.545455 0-83.781818 37.236364-83.781818 83.781818v349.090909c0 46.545455 37.236364 83.781818 83.781818 83.781818h218.763637v-46.545455h-218.763637c-18.618182 0-37.236364-13.963636-37.236363-37.236363z" fill="#2c2c2c" p-id="5360"></path><path d="M823.854545 758.690909l83.781819-83.781818c18.618182-18.618182 18.618182-46.545455 0-65.163636s-46.545455-18.618182-65.163637 0l-83.781818 83.781818-83.781818-83.781818c-18.618182-18.618182-46.545455-18.618182-65.163636 0s-18.618182 46.545455 0 65.163636l83.781818 83.781818-83.781818 83.781818c-18.618182 18.618182-18.618182 46.545455 0 65.163637 9.309091 9.309091 23.272727 13.963636 32.581818 13.963636s23.272727-4.654545 32.581818-13.963636l83.781818-83.781819 83.781818 83.781819c9.309091 9.309091 23.272727 13.963636 32.581818 13.963636s23.272727-4.654545 32.581819-13.963636c18.618182-18.618182 18.618182-46.545455 0-65.163637l-83.781819-83.781818z" fill="#2c2c2c" p-id="5361"></path></svg>