<?xml version="1.0" standalone="no"?><!DOCTYPE svg PUBLIC "-//W3C//DTD SVG 1.1//EN" "http://www.w3.org/Graphics/SVG/1.1/DTD/svg11.dtd"><svg t="1726328604846" class="icon" viewBox="0 0 1024 1024" version="1.1" xmlns="http://www.w3.org/2000/svg" p-id="4270" xmlns:xlink="http://www.w3.org/1999/xlink" width="16" height="16"><path d="M648.04276 667.990023c-7.541038 0-14.717187-2.919112-20.068891-8.270816l-115.304906-115.304906-115.183276 115.304906c-5.351704 5.351704-12.406224 8.270816-20.068892 8.270816-7.541038 0-14.717187-2.919112-20.068891-8.270816-11.068298-11.068298-11.068298-28.947856 0-40.137784l115.304905-115.183276-115.304905-115.183276c-10.946668-11.068298-10.946668-28.947856 0-40.137783 5.351704-5.351704 12.406224-8.270816 20.068891-8.270816 7.541038 0 14.717187 2.919112 20.068892 8.270816l115.304906 115.183275L627.973869 349.077088c5.351704-5.351704 12.406224-8.270816 20.068891-8.270816 7.541038 0 14.717187 2.919112 20.068892 8.270816 11.068298 11.068298 11.068298 28.947856 0 40.137783l-115.304905 115.304906 115.183276 115.183276c10.946668 10.946668 11.068298 28.947856 0.121629 40.016154-5.351704 5.351704-12.527854 8.270816-20.068892 8.270816z m0 0" p-id="4271" fill="#2c2c2c"></path><path d="M200.688918 582.84927c13.74415 0 24.934078-11.189928 24.934078-24.934078V299.93871c0-41.110821 33.691412-74.680603 74.680603-74.680603H473.504217v-49.868156H300.303599c-68.477491 0-124.548759 56.071267-124.548759 124.548759v258.098111c0 13.62252 11.189928 24.812448 24.934078 24.812449zM798.498634 472.774439v250.678703c0 41.110821-33.691412 74.680603-74.680603 74.680603H516.561112 262.720038l63.125787-64.098824c9.730372-9.730372 9.730372-25.542226 0-35.272598s-25.542226-9.730372-35.272598 0l-105.817793 105.696164c-4.378667 4.378667-7.05452 10.581779-7.054519 17.636299-0.851408 6.081482 1.702815 12.406224 7.054519 17.636298l105.696164 105.696164c9.730372 9.730372 25.542226 9.730372 35.272597 0s9.730372-25.542226 0-35.272598L262.355149 847.758641H723.696401c68.477491 0 124.548759-56.071267 124.548759-124.548759v-250.557073h-49.746526z" p-id="4272" fill="#2c2c2c"></path><path d="M225.501366 528.237558V300.668488c0-41.110821 33.691412-74.680603 74.680603-74.680603h461.097993l-63.125787 64.098824c-9.730372 9.730372-9.730372 25.542226 0 35.272597s25.542226 9.730372 35.272598 0l105.817793-105.696163c4.378667-4.378667 7.05452-10.581779 7.054519-17.636299 0.851408-6.081482-1.702815-12.406224-7.054519-17.636299l-105.696164-105.696163c-9.730372-9.730372-25.542226-9.730372-35.272597 0s-9.730372 25.542226 0 35.272597l63.490676 62.27438H300.303599c-68.477491 0-124.548759 56.071267-124.548759 124.548759v227.44744h49.746526zM823.311082 441.15073c-13.74415 0-24.934078 11.189928-24.934078 24.934078v258.098112c0 41.110821-33.691412 74.680603-74.680603 74.680603h-73.221048v49.868155h73.221048c68.477491 0 124.548759-56.071267 124.548759-124.548758V466.084808c0-13.74415-11.189928-24.934078-24.934078-24.934078z" p-id="4273" fill="#2c2c2c"></path></svg>