<?xml version="1.0" standalone="no"?><!DOCTYPE svg PUBLIC "-//W3C//DTD SVG 1.1//EN" "http://www.w3.org/Graphics/SVG/1.1/DTD/svg11.dtd"><svg t="1728980516168" class="icon" viewBox="0 0 1024 1024" version="1.1" xmlns="http://www.w3.org/2000/svg" p-id="34788" xmlns:xlink="http://www.w3.org/1999/xlink" width="14" height="14"><path d="M444.348 1010.048a36.648 36.648 0 0 1-5.384-0.328C188.724 976.072 0.004 760.016 0.004 507.12 0.004 227.504 227.492 0 507.124 0 759.948 0 976.004 188.656 1009.716 438.896a39.92 39.92 0 1 1-79.128 10.632C902.252 238.736 720.18 79.808 507.124 79.808c-235.888 0.296-427.032 191.432-427.32 427.312 0 213.064 159 395.064 369.792 423.464a39.904 39.904 0 0 1-5.248 79.464z" fill="#ffffff" p-id="34789"></path><path d="M446.276 749.312c-3.864 0-7.728-0.568-11.432-1.672A252.592 252.592 0 0 1 256.1 507.12c0.104-138.64 112.448-251.008 251.096-251.16 110.544-0.48 208.256 71.784 240.184 177.608a39.896 39.896 0 0 1-76.28 23.344 170.36 170.36 0 0 0-163.84-121.096c-94.576 0.152-171.192 76.792-171.304 171.368A172.232 172.232 0 0 0 457.844 671.24a39.904 39.904 0 0 1-11.568 78.072z" fill="#ffffff" p-id="34790"></path><path d="M718.324 1016.968L568.964 568.96l448.072 149.36-298.712 298.648z m-23.152-321.856l58.056 174.168 116.104-116.12-174.16-58.048z" fill="#ffffff" p-id="34791"></path></svg>