<?xml version="1.0" standalone="no"?><!DOCTYPE svg PUBLIC "-//W3C//DTD SVG 1.1//EN" "http://www.w3.org/Graphics/SVG/1.1/DTD/svg11.dtd"><svg t="1728979653227" class="icon" viewBox="0 0 1024 1024" version="1.1" xmlns="http://www.w3.org/2000/svg" p-id="18975" xmlns:xlink="http://www.w3.org/1999/xlink" width="14" height="14"><path d="M640.64 195.2a31.936 31.936 0 0 1-8.128-30.464 31.104 31.104 0 1 1 52.416-14.144l176.192 177.984a31.488 31.488 0 0 1 9.28 22.272 31.488 31.488 0 0 1-9.152 22.528l-176.32 178.048a31.36 31.36 0 0 1-53.568-22.4c0-8.32 3.328-16.384 9.216-22.272l154.24-155.712-154.24-155.776zM577.152 26.752a31.36 31.36 0 0 1 30.592 8.32 32 32 0 0 1 8.064 30.72l-156.16 588.864a31.36 31.36 0 1 1-52.864 14.4 32 32 0 0 1-8.064-30.72L554.88 49.344a31.68 31.68 0 0 1 22.272-22.656z m-193.728 480a31.872 31.872 0 0 1 0 44.8 31.36 31.36 0 0 1-44.352-0.064L162.816 373.376a31.744 31.744 0 0 1-9.216-22.4c0-8.32 3.328-16.384 7.36-17.728l1.92-4.608 176.256-178.048a30.976 30.976 0 0 1 30.208-8.192c10.816 2.88 19.328 11.52 22.144 22.4a32 32 0 0 1-8.064 30.464L229.312 350.976l154.176 155.776zM104.832 955.008C45.184 955.008 0 911.232 0 830.528 0 750.72 46.656 704 104.832 704c31.552 0 53.44 15.04 67.584 31.04l-23.296 30.72c-10.624-11.392-23.04-20.224-42.88-20.224-36.288 0-61.632 31.36-61.632 83.328 0 52.608 21.824 84.352 64.64 84.352 10.624 0 21.248-3.264 27.52-9.152v-47.744h-38.72v-39.552h77.632v109.184c-14.72 16-40.448 29.056-70.848 29.056z m114.24-4.544v-183.04h35.456l2.944 32.32h1.216c12.096-23.808 29.76-36.928 46.912-36.928a42.88 42.88 0 0 1 19.52 3.968l-7.68 41.472a47.552 47.552 0 0 0-17.152-2.944c-12.992 0-28.608 9.472-38.08 35.968v109.184h-43.136z m194.304 4.544c-41.344 0-79.424-35.264-79.424-95.744 0-61.12 38.08-96.448 79.424-96.448 41.344 0 79.424 35.328 79.424 96.448 0 60.48-38.08 95.744-79.36 95.744z m0-39.232c22.4 0 35.2-22.208 35.2-56.512 0-34.624-12.8-57.216-35.2-57.216-22.4 0-35.136 22.592-35.136 57.216 0 34.304 12.672 56.512 35.2 56.512z m184.832 39.232c-41.344 0-79.36-35.264-79.36-95.744 0-61.12 38.016-96.448 79.36-96.448s79.424 35.328 79.424 96.448c0 60.48-38.08 95.744-79.36 95.744z m0-39.232c22.4 0 35.2-22.208 35.2-56.512 0-34.624-12.8-57.216-35.2-57.216-22.4 0-35.136 22.592-35.136 57.216 0 34.304 12.736 56.512 35.2 56.512z m150.592 34.688l-56.384-183.04h43.712l24.192 91.2c4.16 17.92 8.832 36.928 13.312 55.552h1.472c4.096-18.624 8.832-37.568 13.248-55.552l24.256-91.2h41.6l-55.232 183.04H748.8zM896.128 1024a63.808 63.808 0 0 1-22.72-3.584l8-36.928c2.944 0.96 7.68 2.24 11.52 2.24 16.832 0 26.24-11.712 30.976-27.776l2.944-10.752-64.384-179.84h43.712l26.24 85.056c5.12 16.32 9.216 33.92 13.952 51.648h1.472l11.776-51.648 22.72-84.992H1024l-58.752 188.608c-14.464 43.136-32.192 67.968-69.12 67.968z" fill="#ffffff" p-id="18976"></path></svg>