<?xml version="1.0" standalone="no"?><!DOCTYPE svg PUBLIC "-//W3C//DTD SVG 1.1//EN" "http://www.w3.org/Graphics/SVG/1.1/DTD/svg11.dtd"><svg t="1728980884620" class="icon" viewBox="0 0 1024 1024" version="1.1" xmlns="http://www.w3.org/2000/svg" p-id="42415" xmlns:xlink="http://www.w3.org/1999/xlink" width="14" height="14"><path d="M512 953.81818174c244.02272695 0 441.81818174-197.79545479 441.81818174-441.81818174C953.81818174 267.97727305 756.02272695 70.18181826 512 70.18181826 267.97727305 70.18181826 70.18181826 267.97727305 70.18181826 512c0 244.02272695 197.79545479 441.81818174 441.81818174 441.81818174z m0-65.45454522a376.36363653 376.36363653 0 1 1 0-752.72727305 376.36363653 376.36363653 0 0 1 0 752.72727305z" p-id="42416" fill="#ffffff"></path><path d="M358.59090869 426.78636347m-51.13636348 0a51.13636347 51.13636347 0 1 0 102.27272784 0 51.13636347 51.13636347 0 1 0-102.27272784 0Z" p-id="42417" fill="#ffffff"></path><path d="M665.40909131 426.78636347m-51.13636436 0a51.13636347 51.13636347 0 1 0 102.27272784 0 51.13636347 51.13636347 0 1 0-102.27272784 0Z" p-id="42418" fill="#ffffff"></path><path d="M341.53181826 749.27272695h340.93636348a32.72727305 32.72727305 0 1 0 0-65.45454521H341.53181826a32.72727305 32.72727305 0 1 0 0 65.45454521z" p-id="42419" fill="#ffffff"></path></svg>