<?xml version="1.0" standalone="no"?><!DOCTYPE svg PUBLIC "-//W3C//DTD SVG 1.1//EN" "http://www.w3.org/Graphics/SVG/1.1/DTD/svg11.dtd"><svg t="1728979889015" class="icon" viewBox="0 0 1028 1024" version="1.1" xmlns="http://www.w3.org/2000/svg" p-id="26437" xmlns:xlink="http://www.w3.org/1999/xlink" width="14.0546875" height="14"><path d="M514 78.2c46.4 0 91.7 8.4 134.6 25.1 41.4 16.1 79.3 39.3 112.6 69.1l34.8 31.1 42.1-20.2c11.3-5.4 23.5-8.2 36.2-8.2 46.2 0 83.8 37.6 83.8 83.8 0 14.9-3.9 29.5-11.4 42.3-7.3 12.4-17.7 22.9-30.2 30.2l-40.1 23.5 6 46.1c2.1 16.1 3.2 32.5 3.2 48.8 0 77.2-23.5 151.3-67.9 214.1-21.4 30.3-47.2 57.2-76.5 79.9a371.65 371.65 0 0 1-97.3 54.2l-45.1 16.8-0.4 48.1c-0.2 22.2-9 43.1-24.8 58.7-15.8 15.7-36.7 24.3-59 24.3-22.2 0-43.1-8.6-58.9-24.2-15.9-15.7-24.7-36.5-24.9-58.7l-0.6-48.1-45.1-16.7c-35-13-67.9-31.2-97.6-54.1-29.5-22.7-55.3-49.6-76.8-80-44.6-62.9-68.1-137.1-68.1-214.5 0-16.3 1.1-32.7 3.2-48.8l6-46.1-40.1-23.5A84.06 84.06 0 0 1 81.5 301C73.9 288.4 70 273.8 70 258.9c0-46.2 37.6-83.8 83.8-83.8 12.7 0 24.9 2.7 36.2 8.2l42.1 20.2 34.8-31.1c33.3-29.7 71.2-53 112.6-69.1 42.8-16.6 88.1-25.1 134.5-25.1m0-70c-112.8 0-215.7 42.3-293.8 111.9-20.1-9.6-42.6-15.1-66.4-15.1C68.9 105.1 0 173.9 0 258.9c0 56.7 30.7 106.2 76.3 132.9-2.5 19-3.8 38.3-3.8 57.9 0 189.9 120 351.9 288.2 414.2 1 84.1 69.5 151.9 153.8 151.9 84.5 0 153-68.1 153.8-152.3C836 800.9 955.5 639.2 955.5 449.7c0-19.6-1.3-39-3.8-57.9 45.6-26.7 76.3-76.2 76.3-132.9 0-84.9-68.9-153.8-153.8-153.8-23.8 0-46.3 5.4-66.4 15.1-78.1-69.7-181-112-293.8-112z" p-id="26438" fill="#ffffff"></path><path d="M610.5 461.4c19.3-22.3 31-51.5 31-83.3 0-70.4-57.1-127.5-127.5-127.5s-127.5 57.1-127.5 127.5c0 31.8 11.7 60.9 31 83.3-68.4 34.9-115.3 105.8-115.3 187.4h70c0-77.5 63.6-140.5 141.8-140.5s141.8 63 141.8 140.5h70c0-81.6-46.9-152.5-115.3-187.4zM514 320.6c31.7 0 57.5 25.8 57.5 57.5s-25.8 57.5-57.5 57.5-57.5-25.8-57.5-57.5 25.8-57.5 57.5-57.5z" p-id="26439" fill="#ffffff"></path></svg>