<?xml version="1.0" standalone="no"?><!DOCTYPE svg PUBLIC "-//W3C//DTD SVG 1.1//EN" "http://www.w3.org/Graphics/SVG/1.1/DTD/svg11.dtd"><svg t="1728980429495" class="icon" viewBox="0 0 1024 1024" version="1.1" xmlns="http://www.w3.org/2000/svg" p-id="32303" width="14" height="14" xmlns:xlink="http://www.w3.org/1999/xlink"><path d="M512 1024C239.848827 1024 18.465915 794.294422 18.465915 511.947983S239.848827 0 512 0s493.534085 229.705578 493.534085 511.947983S784.151173 1023.895967 512 1023.895967z m0-992.790003C256.390125 31.209997 48.531545 246.871076 48.531545 511.947983s207.85858 480.737986 463.364422 480.737987 463.364421-215.661079 463.364421-480.737987S767.505842 31.209997 512 31.209997z" fill="#2c2c2c" p-id="32304"></path><path d="M236.20766 403.649294l251.760642 145.438586c2.4968 1.456467 5.409733 2.1847 8.322666 2.184699 3.016966 0 5.929899-0.832267 8.426699-2.496799l249.784009-144.190186c5.097633-3.016966 8.322666-8.530733 8.218633-14.460632 0-5.929899-3.225033-11.443666-8.426699-14.356599L505.445901 231.474144c-2.4968-1.456467-5.409733-2.288733-8.4267-2.288733-3.225033 0-6.346033 0.9363-9.050899 2.704866L238.39236 376.080463c-4.785533 2.704866-7.802499 7.594433-8.218632 13.108199-0.416133 5.409733 1.8726 10.715432 6.137966 14.148532v0.208067zM497.019201 265.076907l215.973179 125.256122-216.909478 125.256121L279.589556 390.645129l217.221579-125.464188zM279.797623 512.260083l38.804429-22.367164-33.082597-19.038098-47.127095 27.152697-2.392766 1.768567c-6.137966 5.201666-7.594433 13.940465-3.641167 20.910697 1.040333 1.768566 2.392766 3.4331 3.953267 4.889567l244.894442 141.381286c-0.3121-4.265366-0.520167-8.426699-0.520166-12.588032 0-8.322666 0.728233-16.645332 2.1847-24.759931L279.797623 512.364117zM754.397643 497.591385l-46.814995-27.152698-33.082597 19.142132 38.700396 22.471198-10.611399 6.137966c11.859799 4.9936 22.991364 11.339632 33.290663 19.038098s18.725998-10.715432 18.725999-10.715432l2.392766-1.768567c4.161333-3.537133 6.346033-8.842832 5.825866-14.252565-0.520167-5.409733-3.641166-10.195266-8.426699-12.796099zM515.641166 747.791527l-19.350198 11.131566-216.493345-125.048055 38.596363-22.263131-33.082597-19.142132-46.919029 27.048665-2.392766 1.768566c-6.137966 5.201666-7.594433 13.940465-3.641167 20.910698 1.040333 1.768566 2.392766 3.4331 3.953267 4.785533l251.760642 145.438586 2.600833 1.248399c1.768566 0.6242 3.7452 1.040333 5.617799 1.040334 3.016966 0 5.929899-0.832267 8.530733-2.392767l36.203596-20.910698c-9.258966-6.866199-17.789698-14.876765-25.384131-23.615564z" fill="#2c2c2c" p-id="32305"></path><path d="M649.219953 516.941583c-66.37326-2.1847-122.031088 49.935995-124.111754 116.309255v0.208067c0.416133 10.091232 8.946866 17.997765 19.142131 17.477598a18.309865 18.309865 0 0 0 17.477598-17.477598c0.728233-31.418064 18.725998-59.819161 46.814996-73.86366a90.144875 90.144875 0 0 1 115.997155 29.129331l-20.390531 29.12933h89.572691l-28.50513-85.515391-18.309865 25.280097a143.357919 143.357919 0 0 0-97.687291-40.781062zM763.136442 643.134004h0.104033-0.104033zM767.817942 643.550137c-1.456467-0.3121-3.016966-0.520167-4.577467-0.416133-9.779132-0.208067-17.997765 7.490399-18.309864 17.269532v0.208066a84.724738 84.724738 0 0 1-46.814996 73.86366 90.144875 90.144875 0 0 1-115.997155-29.129331l20.390531-29.12933h-89.572691l28.50513 85.411358 18.309865-25.280098c24.343798 27.152697 59.090928 42.757696 95.606624 42.757696 66.37326 2.1847 121.927055-49.935995 124.111755-116.309255v-0.208067c2.080666-8.426699-3.121-16.957432-11.651732-19.038098z" fill="#2c2c2c" p-id="32306"></path></svg>