<?xml version="1.0" standalone="no"?><!DOCTYPE svg PUBLIC "-//W3C//DTD SVG 1.1//EN" "http://www.w3.org/Graphics/SVG/1.1/DTD/svg11.dtd"><svg t="1728979396340" class="icon" viewBox="0 0 1024 1024" version="1.1" xmlns="http://www.w3.org/2000/svg" p-id="14515" xmlns:xlink="http://www.w3.org/1999/xlink" width="14" height="14"><path d="M998.751575 532.73808a35.863339 35.863339 0 1 1-71.580397-3.90084 367.897885 367.897885 0 0 0-95.253614-269.401698 344.44409 344.44409 0 0 0-357.48752-99.715199 19.504195 19.504195 0 0 1-5.095471 1.219013l-7.850439 2.438024-4.315303-1.462815a37.789378 37.789378 0 0 1-32.742668-29.500095 28.817449 28.817449 0 0 1 5.534315-19.016591 35.863339 35.863339 0 0 1 21.94222-23.648836L528.578566 7.58762a29.256293 29.256293 0 0 1 48.224123 15.359553l9.630197 48.029081a416.902176 416.902176 0 0 1 297.634021 137.74838 442.477052 442.477052 0 0 1 114.684668 324.013446z m-535.14636-171.63692l1.779758-4.876048c10.507885-28.524886 32.401345-88.012682 90.743269-88.012682a68.801049 68.801049 0 0 1 71.190313 62.413425 19.504195 19.504195 0 0 1-20.455025 19.016591 21.357094 21.357094 0 0 1-23.9414-16.334764 31.426135 31.426135 0 0 0-26.818268-29.743898c-24.96537 0-41.153852 43.88444-48.029081 62.657228l-1.877279 5.119851c-1.682237 4.388444-5.97316 17.797578-11.800038 36.326564h54.294804a18.163282 18.163282 0 1 1 0 35.351354h-65.363435q-29.646377 95.81436-58.732008 191.628719A76.261404 76.261404 0 0 1 352.821386 682.676581a89.499876 89.499876 0 0 1-83.697379-57.537376 17.505015 17.505015 0 0 1 15.213273-21.94222 23.380654 23.380654 0 0 1 27.598436 11.94632 49.760078 49.760078 0 0 0 40.95881 32.181922 35.253833 35.253833 0 0 0 28.988111-22.673627c3.266953-10.483505 32.791428-108.004482 55.660097-181.632819H370.594584a18.138902 18.138902 0 1 1 0-35.351354h78.016781c7.314073-23.405034 12.848389-40.95881 14.99385-46.566267zM289.432751 109.009435a358.097027 358.097027 0 0 0-178.122064 219.909803 370.921035 370.921035 0 0 0 95.082952 369.604502 37.423675 37.423675 0 0 1 9.166972 39.008391 36.180282 36.180282 0 0 1-11.726898 27.305873 27.037691 27.037691 0 0 1-24.98975 3.169432L47.068743 733.875094a30.792248 30.792248 0 0 1-11.288053-50.710908l41.275754-38.033181a452.131629 452.131629 0 0 1 11.288053-442.989037 427.28816 427.28816 0 0 1 168.491867-159.202994 35.253833 35.253833 0 0 1 48.248504 16.090961 37.813759 37.813759 0 0 1-15.652117 49.9795zM707.041954 617.825132a21.527756 21.527756 0 0 1-24.136442 19.260393 32.718288 32.718288 0 0 1-24.380244-10.727308l-37.253014-39.00839-37.253013 39.00839a32.108782 32.108782 0 0 1-22.771148 10.727308 21.625277 21.625277 0 0 1-24.380244-18.285183 18.919069 18.919069 0 0 1 7.314073-14.140542l47.248914-44.615847-43.104272-39.495996a21.308333 21.308333 0 0 1-8.606226-15.847158 21.527756 21.527756 0 0 1 24.136441-19.260393 32.620767 32.620767 0 0 1 24.380245 10.727307l34.132341 36.326564 34.839369-36.326564a32.230683 32.230683 0 0 1 22.771148-10.727307 21.625277 21.625277 0 0 1 24.380245 18.285183 20.186842 20.186842 0 0 1-7.314074 14.140542l-44.884029 41.690217 46.200563 42.421625a21.381474 21.381474 0 0 1 8.679367 15.847159z m-24.160822 19.260393zM251.935935 890.396262a340.372589 340.372589 0 0 0 273.49758 49.491896 357.585042 357.585042 0 0 0 262.453328-269.889304 35.93648 35.93648 0 0 1 43.250553-27.549676 36.98483 36.98483 0 0 1 27.427775 36.570367l34.132342 123.85164a29.865799 29.865799 0 0 1-36.96045 35.351354l-52.783229-17.797578a419.072017 419.072017 0 0 1-372.505751 203.331237 412.026127 412.026127 0 0 1-217.764341-71.190313 37.740618 37.740618 0 0 1-10.507885-51.198513 35.326974 35.326974 0 0 1 49.760078-10.97111z" fill="#ffffff" p-id="14516"></path></svg>